<?xml version="1.0" encoding="UTF-8" standalone="no"?>
<!-- Created with Inkscape (http://www.inkscape.org/) -->

<svg
   width="210mm"
   height="297mm"
   viewBox="0 0 210 297"
   version="1.1"
   id="svg5"
   inkscape:version="1.1 (c4e8f9e, 2021-05-24)"
   sodipodi:docname="bTest.svg"
   xmlns:inkscape="http://www.inkscape.org/namespaces/inkscape"
   xmlns:sodipodi="http://sodipodi.sourceforge.net/DTD/sodipodi-0.dtd"
   xmlns="http://www.w3.org/2000/svg"
   xmlns:svg="http://www.w3.org/2000/svg">
  <sodipodi:namedview
     id="namedview7"
     pagecolor="#ffffff"
     bordercolor="#666666"
     borderopacity="1.0"
     inkscape:pageshadow="2"
     inkscape:pageopacity="0.0"
     inkscape:pagecheckerboard="0"
     inkscape:document-units="mm"
     showgrid="false"
     inkscape:zoom="0.48106061"
     inkscape:cx="396"
     inkscape:cy="561.25984"
     inkscape:window-width="1312"
     inkscape:window-height="762"
     inkscape:window-x="0"
     inkscape:window-y="25"
     inkscape:window-maximized="0"
     inkscape:current-layer="layer1" />
  <defs
     id="defs2" />
  <g
     inkscape:label="Layer 1"
     inkscape:groupmode="layer"
     id="layer1">
    <path
       d="m 13.771483,24.073039 q 1.304132,-0.502991 4.173222,-1.00598 2.86909,-0.670654 5.868593,-0.670654 2.869088,0 5.086112,0.502991 2.347437,0.502989 3.912395,2.01196 1.564958,1.50897 2.347437,4.191583 0.782478,2.51495 0.782478,6.706534 v 16.431008 q 3.260329,-1.676633 6.129419,-2.347287 2.999503,-0.670652 6.520659,-0.670652 6.259832,0 11.867598,2.850276 5.607766,2.850275 9.911399,8.383166 4.303635,5.365228 6.781484,13.413068 2.477851,8.047841 2.477851,18.610633 0,10.898115 -2.608263,19.113625 -2.477851,8.04783 -7.042311,13.41306 -4.56446,5.36523 -11.215531,8.21551 -6.520659,2.6826 -14.475862,2.6826 -8.607268,0 -14.606275,-2.6826 -5.999004,-2.51495 -10.172226,-6.37121 -5.738179,-5.19756 -5.738179,-13.41306 z m 30.51668,89.364571 q 5.999006,0 9.259335,-5.19756 3.390742,-5.36524 3.390742,-15.760365 0,-10.562792 -3.390742,-15.760356 -3.390743,-5.197564 -9.128922,-5.197564 -2.608263,0 -4.564461,0.670653 -1.825783,0.670654 -4.042808,2.011961 v 36.550601 q 1.434545,1.17365 3.390742,2.01198 2.086612,0.67065 5.086114,0.67065 z"
       id="B"
       style="font-size:115.547px;line-height:1.25;font-family:'Baloo Bhaijaan';-inkscape-font-specification:'Baloo Bhaijaan';fill:#ffccaa;stroke-width:3.69677" />
    <path
       d="m 24.265914,223.28892 q 0,-7.86041 4.241999,-13.1007 4.241999,-5.24027 11.583925,-5.24027 7.341914,0 11.583916,5.24027 4.241996,5.24029 4.241996,13.1007 0,7.86043 -4.241996,13.10069 -4.242002,5.2403 -11.583916,5.2403 -7.341926,0 -11.583925,-5.2403 -4.241999,-5.24026 -4.241999,-13.10069 z"
       id="Period"
       style="font-size:115.547px;line-height:1.25;font-family:'Baloo Bhaijaan';-inkscape-font-specification:'Baloo Bhaijaan';fill:#ececec;stroke-width:4.36857" />
    <path
       d="m 131.59938,28.103882 q 0,-5.754206 4.43553,-9.691295 4.61293,-3.937089 12.06458,-3.937089 7.45167,0 11.88718,3.937089 4.61293,3.937089 4.61293,9.691295 0,5.754207 -4.61293,9.691295 -4.43551,3.937089 -11.88718,3.937089 -7.45165,0 -12.06458,-3.937089 -4.43553,-3.937088 -4.43553,-9.691295 z m 31.58086,93.884408 q -1.95163,0.30287 -5.85487,0.75714 -3.72584,0.60572 -7.62909,0.60572 -3.90326,0 -7.09682,-0.45429 -3.01615,-0.45427 -5.14521,-1.81712 -2.12904,-1.36283 -3.37098,-3.63424 -1.06451,-2.42282 -1.06451,-6.20848 V 49.606444 q 1.95162,-0.302853 5.67744,-0.757133 3.90326,-0.605705 7.80651,-0.605705 3.90325,0 6.91939,0.454279 3.19359,0.454279 5.32263,1.817118 2.12904,1.362837 3.19357,3.78566 1.24194,2.271397 1.24194,6.05706 z"
       id="I"
       style="font-size:115.547px;line-height:1.25;font-family:'Baloo Bhaijaan';-inkscape-font-specification:'Baloo Bhaijaan';fill:#ff7f2a;stroke-width:4.09775" />
    <path
       d="m 194.61078,196.88502 q 0,12.26102 -3.03968,21.95121 -3.03969,9.4924 -8.63911,16.01844 -5.43943,6.52605 -13.11862,9.88791 -7.67921,3.3619 -17.11822,3.3619 -9.43903,0 -17.1182,-3.55965 -7.67921,-3.55965 -13.27862,-10.08567 -5.43944,-6.7238 -8.47911,-16.21621 -3.0397,-9.49241 -3.0397,-21.35793 0,-11.66775 3.0397,-21.16016 3.03967,-9.49241 8.47911,-16.01845 5.59941,-6.7238 13.27862,-10.28344 7.67917,-3.55966 17.1182,-3.55966 9.43901,0 17.11822,3.7574 7.67919,3.55966 13.11862,10.28347 5.59942,6.52603 8.63911,16.01844 3.03968,9.4924 3.03968,20.9624 z m -55.99415,0 q 0,12.06328 3.6796,18.58932 3.83961,6.32825 10.55889,6.32825 6.71932,0 10.23895,-6.52603 3.6796,-6.52602 3.6796,-18.39154 0,-11.86551 -3.6796,-18.19379 -3.67962,-6.52603 -10.39892,-6.52603 -6.7193,0 -10.39892,6.52603 -3.6796,6.32828 -3.6796,18.19379 z"
       id="O"
       style="font-size:115.547px;line-height:1.25;font-family:'Baloo Bhaijaan';-inkscape-font-specification:'Baloo Bhaijaan';fill:#ffffff;stroke-width:4.44679" />
  </g>
</svg>
