<?xml version="1.0" encoding="UTF-8" standalone="no"?>
<!-- Created with Inkscape (http://www.inkscape.org/) -->

<svg
   width="210mm"
   height="297mm"
   viewBox="0 0 210 297"
   version="1.1"
   id="svg5"
   inkscape:version="1.1 (c4e8f9e, 2021-05-24)"
   sodipodi:docname="gameImage.svg"
   xmlns:inkscape="http://www.inkscape.org/namespaces/inkscape"
   xmlns:sodipodi="http://sodipodi.sourceforge.net/DTD/sodipodi-0.dtd"
   xmlns="http://www.w3.org/2000/svg"
   xmlns:svg="http://www.w3.org/2000/svg">
  <sodipodi:namedview
     id="namedview7"
     pagecolor="#ffffff"
     bordercolor="#666666"
     borderopacity="1.0"
     inkscape:pageshadow="2"
     inkscape:pageopacity="0.0"
     inkscape:pagecheckerboard="0"
     inkscape:document-units="mm"
     showgrid="false"
     inkscape:zoom="0.48106061"
     inkscape:cx="396"
     inkscape:cy="561.25984"
     inkscape:window-width="1312"
     inkscape:window-height="762"
     inkscape:window-x="0"
     inkscape:window-y="25"
     inkscape:window-maximized="0"
     inkscape:current-layer="layer1" />
  <defs
     id="defs2" />
  <g
     inkscape:label="Layer 1"
     inkscape:groupmode="layer"
     id="layer1">
    <path
       d="m 22.049394,47.10578 q 0.351011,0.810267 0.601732,2.209818 0.300866,1.325891 0.300866,2.799103 0,2.872764 -0.852453,4.124994 -0.802309,1.178569 -2.206351,1.178569 H 9.3628795 v 8.323649 H 20.344487 q 0.401155,0.810266 0.651877,2.136157 0.300866,1.325891 0.300866,2.799103 0,2.799103 -0.852454,4.051334 -0.80231,1.17857 -2.206351,1.17857 H 9.4631681 v 15.542388 q -0.5515871,0.220981 -1.7550512,0.441964 -1.1533194,0.220981 -2.306639,0.220981 -1.1533194,0 -2.0559173,-0.294643 Q 2.4931071,91.596786 1.8913752,90.93384 1.2896432,90.270895 0.9887773,89.092326 0.68791137,87.913756 0.68791137,85.99858 V 53.956216 q 0,-3.167406 1.25360813,-5.008921 1.2536082,-1.841515 3.4098141,-1.841515 z"
       id="path2737"
       style="font-size:60.7755px;line-height:1.25;font-family:'Baloo Bhaijaan';-inkscape-font-specification:'Baloo Bhaijaan';stroke-width:1.51938;fill:#ffb380" />
    <path
       d="m 36.027909,83.788762 q 0.852453,0 1.85534,-0.220982 1.053031,-0.294643 1.554474,-0.736606 v -5.892849 l -3.610392,0.441964 q -1.404041,0.147321 -2.306639,0.883927 -0.902598,0.736606 -0.902598,2.209818 0,1.473212 0.752166,2.430801 0.802309,0.883927 2.657649,0.883927 z M 35.626754,54.840144 q 2.707794,0 4.914145,0.810266 2.256494,0.810267 3.810968,2.50446 1.604619,1.620534 2.457072,4.198655 0.852454,2.504461 0.852454,5.966509 v 16.499977 q 0,1.915175 -0.752166,3.167405 -0.70202,1.17857 -1.704907,2.062497 -3.25938,2.872764 -9.176411,2.872764 -2.657649,0 -4.813856,-0.736606 -2.106061,-0.736606 -3.660535,-2.209818 -1.50433,-1.473212 -2.356784,-3.756692 -0.802309,-2.283478 -0.802309,-5.303563 0,-5.082582 2.055918,-7.808024 2.055917,-2.725443 6.368329,-3.388388 l 6.568907,-1.031249 v -0.515624 q 0,-2.136157 -1.303753,-3.020085 -1.253608,-0.957588 -3.660536,-0.957588 -1.905484,0 -3.71068,0.589285 -1.805196,0.589285 -3.259381,1.473212 -0.651876,-0.662945 -1.103175,-1.988836 -0.451299,-1.399552 -0.451299,-2.872764 0,-1.915176 0.601732,-3.020084 0.651877,-1.17857 1.955629,-1.988837 1.454185,-0.810266 3.409814,-1.17857 2.005773,-0.368302 3.760824,-0.368302 z"
       id="path2739"
       style="font-size:60.7755px;line-height:1.25;font-family:'Baloo Bhaijaan';-inkscape-font-specification:'Baloo Bhaijaan';stroke-width:1.51938;fill:#b3b3b3" />
    <path
       d="m 76.741187,85.261974 q -0.250722,3.462048 -1.404041,5.303564 -1.103175,1.841514 -3.259381,1.841514 -1.604619,0 -2.858226,-1.104908 -1.253609,-1.17857 -2.707794,-3.904013 l -4.964288,-9.133915 v 13.40623 q -0.551587,0.147321 -1.654763,0.368304 -1.053031,0.294642 -2.156206,0.294642 -1.103175,0 -2.005773,-0.220982 -0.852454,-0.220981 -1.454186,-0.883927 -0.601732,-0.662945 -0.952741,-1.767855 -0.300866,-1.17857 -0.300866,-3.020084 V 43.791052 q 0.551587,-0.220981 1.604618,-0.441964 1.103175,-0.294642 2.20635,-0.294642 1.103175,0 1.955629,0.220982 0.902598,0.220981 1.50433,0.883927 0.601732,0.662945 0.902598,1.841515 0.35101,1.10491 0.35101,2.946425 v 19.4464 l 8.624824,-12.964266 q 2.607504,0 4.161979,1.694193 1.604618,1.694194 1.604618,4.272315 0,1.10491 -0.250722,2.062497 -0.250721,0.883927 -0.802309,1.841516 -0.501443,0.957587 -1.353896,2.062497 -0.80231,1.031248 -1.905485,2.430799 l -2.90837,3.68303 z"
       id="path2741"
       style="font-size:60.7755px;line-height:1.25;font-family:'Baloo Bhaijaan';-inkscape-font-specification:'Baloo Bhaijaan';stroke-width:1.51938;fill:#ff6600" />
    <path
       d="m 92.546833,92.922677 q -2.958511,0 -5.515871,-1.17857 -2.507221,-1.252231 -4.412706,-3.68303 -1.855339,-2.4308 -2.958514,-6.113831 -1.05303,-3.68303 -1.05303,-8.618291 0,-4.8616 1.05303,-8.323648 1.103175,-3.535709 2.858226,-5.745527 1.755049,-2.283479 4.011546,-3.314728 2.256497,-1.104908 4.613281,-1.104908 2.657648,0 4.813857,1.178569 2.206349,1.17857 3.760822,3.241067 1.604616,2.062497 2.457076,4.93526 0.9026,2.872764 0.9026,6.261152 0,2.504461 -0.95275,3.830351 -0.95274,1.325891 -2.657649,1.694194 l -12.38565,2.725443 q 0.551587,2.4308 2.256497,3.68303 1.704909,1.17857 3.911258,1.17857 2.055913,0 3.86111,-0.736606 1.855346,-0.810266 3.008664,-1.841515 0.80231,0.736606 1.35389,2.062497 0.55159,1.325891 0.55159,2.799103 0,3.314727 -2.10606,4.93526 -1.604622,1.252231 -3.610395,1.694194 -2.005773,0.441964 -3.760822,0.441964 z M 91.142795,63.974059 q -1.203462,0 -2.106061,0.589285 -0.852458,0.589284 -1.404046,1.546872 -0.551587,0.883927 -0.85245,2.062497 -0.250724,1.104909 -0.300864,2.283479 l 8.574679,-2.062497 q -0.150435,-1.473212 -1.103174,-2.946424 -0.952747,-1.473212 -2.808084,-1.473212 z"
       id="path2743"
       style="font-size:60.7755px;line-height:1.25;font-family:'Baloo Bhaijaan';-inkscape-font-specification:'Baloo Bhaijaan';stroke-width:1.51938;fill:#cccccc" />
    <path
       d="m 12.070673,159.88017 q 2.106062,0 3.209237,-1.39956 1.15332,-1.47321 1.15332,-4.41963 0,-2.79911 -1.203464,-4.27232 -1.15332,-1.54687 -3.409814,-1.54687 -0.802309,0 -1.353897,0.0737 -0.5014436,0 -1.0530308,0.14734 v 11.41739 z m -2.6075049,23.64505 q -0.5515871,0.22098 -1.7550512,0.44197 -1.1533194,0.22097 -2.306639,0.22097 -1.1533194,0 -2.0559173,-0.29464 -0.8524535,-0.22097 -1.4541854,-0.88392 -0.601732,-0.66294 -0.9025979,-1.84151 -0.30086593,-1.17858 -0.30086593,-3.09375 V 143.3802 q 0,-1.54688 0.55158753,-2.35715 0.601732,-0.88393 1.6046185,-1.39954 1.704907,-0.88394 3.861113,-1.25224 2.2063506,-0.44196 4.4127006,-0.44196 6.919917,0 10.580453,4.34597 3.660535,4.34598 3.660535,11.7857 0,3.60937 -0.802309,6.55579 -0.752164,2.87277 -2.306639,5.00893 -1.504329,2.06249 -3.861113,3.24106 -2.306639,1.10491 -5.365442,1.10491 H 9.4631681 Z"
       id="path2745"
       style="font-size:60.7755px;line-height:1.25;font-family:'Baloo Bhaijaan';-inkscape-font-specification:'Baloo Bhaijaan';stroke-width:1.51938;fill:#ff7f2a" />
    <path
       d="m 53.562751,165.92034 q 0,4.56695 -0.952742,8.17632 -0.952743,3.53571 -2.707794,5.96652 -1.704907,2.4308 -4.111834,3.68302 -2.406928,1.25223 -5.365443,1.25223 -2.958516,0 -5.365444,-1.32588 -2.406927,-1.32589 -4.161978,-3.7567 -1.704907,-2.50445 -2.65765,-6.04017 -0.952741,-3.53571 -0.952741,-7.95534 0,-4.34598 0.952741,-7.88169 0.952743,-3.5357 2.65765,-5.9665 1.755051,-2.50446 4.161978,-3.83036 2.406928,-1.32589 5.365444,-1.32589 2.958515,0 5.365443,1.39955 2.406927,1.32589 4.111834,3.83035 1.755051,2.4308 2.707794,5.96652 0.952742,3.5357 0.952742,7.80802 z m -17.550514,0 q 0,4.4933 1.153319,6.9241 1.203464,2.35713 3.309526,2.35713 2.106062,0 3.209237,-2.4308 1.153319,-2.4308 1.153319,-6.85043 0,-4.41964 -1.153319,-6.77678 -1.15332,-2.4308 -3.259381,-2.4308 -2.106062,0 -3.259382,2.4308 -1.153319,2.35714 -1.153319,6.77678 z"
       id="path2747"
       style="font-size:60.7755px;line-height:1.25;font-family:'Baloo Bhaijaan';-inkscape-font-specification:'Baloo Bhaijaan';stroke-width:1.51938;fill:#ffb380" />
    <path
       d="m 81.540151,177.33773 q -0.250722,3.46205 -1.404041,5.30357 -1.103175,1.84152 -3.259382,1.84152 -1.604618,0 -2.858227,-1.10492 -1.253607,-1.17856 -2.707793,-3.90401 l -4.964288,-9.13392 v 13.40623 q -0.551588,0.14732 -1.654763,0.36831 -1.05303,0.29464 -2.156206,0.29464 -1.103175,0 -2.005773,-0.22099 -0.852453,-0.22097 -1.454185,-0.88392 -0.601732,-0.66294 -0.952742,-1.76785 -0.300866,-1.17857 -0.300866,-3.02009 v -42.6495 q 0.551587,-0.22097 1.604618,-0.44196 1.103175,-0.29464 2.206351,-0.29464 1.103175,0 1.955628,0.22099 0.902598,0.22097 1.50433,0.88392 0.601731,0.66295 0.902597,1.84152 0.351011,1.1049 0.351011,2.94642 v 19.4464 l 8.624824,-12.96427 q 2.607505,0 4.161979,1.6942 1.604619,1.6942 1.604619,4.27232 0,1.1049 -0.250722,2.06249 -0.250722,0.88393 -0.80231,1.84152 -0.501443,0.95758 -1.353896,2.0625 -0.80231,1.03124 -1.905485,2.4308 l -2.908371,3.68302 z"
       id="path2749"
       style="font-size:60.7755px;line-height:1.25;font-family:'Baloo Bhaijaan';-inkscape-font-specification:'Baloo Bhaijaan';stroke-width:1.51938;fill:#b3b3b3" />
    <path
       d="m 97.345797,184.99843 q -2.958511,0 -5.51588,-1.17856 -2.507212,-1.25224 -4.412697,-3.68304 -1.855337,-2.43079 -2.958511,-6.11383 -1.053035,-3.68303 -1.053035,-8.61829 0,-4.86159 1.053035,-8.32364 1.103174,-3.53571 2.858223,-5.74553 1.75505,-2.28348 4.011546,-3.31473 2.256497,-1.10491 4.613281,-1.10491 2.657648,0 4.813851,1.17857 2.20635,1.17858 3.76083,3.24107 1.60461,2.06249 2.45707,4.93526 0.9026,2.87276 0.9026,6.26115 0,2.50446 -0.95275,3.83035 -0.95274,1.32589 -2.65765,1.6942 l -12.385644,2.72543 q 0.551587,2.4308 2.256496,3.68304 1.704901,1.17857 3.911258,1.17857 2.05591,0 3.86111,-0.73661 1.85534,-0.81027 3.00866,-1.84152 0.80231,0.73661 1.3539,2.06251 0.55158,1.32589 0.55158,2.7991 0,3.31472 -2.10606,4.93525 -1.60462,1.25224 -3.61039,1.6942 -2.005773,0.44196 -3.760823,0.44196 z m -1.404038,-28.94862 q -1.20347,0 -2.106069,0.5893 -0.85245,0.58928 -1.404037,1.54686 -0.551587,0.88393 -0.852451,2.06251 -0.250724,1.1049 -0.300872,2.28347 l 8.574679,-2.0625 q -0.150427,-1.47321 -1.103174,-2.94642 -0.952738,-1.47322 -2.808076,-1.47322 z"
       id="path2751"
       style="font-size:60.7755px;line-height:1.25;font-family:'Baloo Bhaijaan';-inkscape-font-specification:'Baloo Bhaijaan';stroke-width:1.51938;fill:#ffb380" />
    <path
       d="m 123.66296,146.9159 q 2.05591,0 4.01154,0.88393 2.00577,0.81027 3.45996,2.50446 1.50433,-1.47322 3.35966,-2.4308 1.90549,-0.95759 4.56314,-0.95759 1.90548,0 3.71068,0.73661 1.85534,0.7366 3.25938,2.35714 1.45419,1.54687 2.30664,4.19865 0.85246,2.57813 0.85246,6.33482 v 23.20308 q -0.50145,0.22099 -1.60462,0.44196 -1.05304,0.22099 -2.20635,0.22099 -1.10318,0 -2.00578,-0.22099 -0.85245,-0.22097 -1.45418,-0.88392 -0.60174,-0.66294 -0.95275,-1.76785 -0.30086,-1.17857 -0.30086,-3.02009 v -17.60488 q 0,-2.20982 -0.85245,-3.16741 -0.85246,-1.03125 -2.30665,-1.03125 -0.70201,0 -1.50432,0.51563 -0.80231,0.44196 -1.20346,0.95758 0.0502,0.29464 0.0502,0.58929 0,0.22098 0,0.44196 v 24.52898 q -0.55159,0.22099 -1.65476,0.44196 -1.05303,0.22099 -2.15621,0.22099 -1.10318,0 -2.00577,-0.22099 -0.85245,-0.22097 -1.45418,-0.88392 -0.60174,-0.66294 -0.95275,-1.76785 -0.30086,-1.17857 -0.30086,-3.02009 v -17.60488 q 0,-2.20982 -0.95275,-3.16741 -0.9026,-1.03125 -2.20635,-1.03125 -0.9026,0 -1.55447,0.44196 -0.65188,0.36831 -1.10317,0.73661 v 25.85487 q -0.50145,0.22099 -1.60463,0.44196 -1.05302,0.22099 -2.20635,0.22099 -1.10317,0 -2.00577,-0.22099 -0.85245,-0.22097 -1.45418,-0.88392 -0.60173,-0.66294 -0.95274,-1.76785 -0.30087,-1.17857 -0.30087,-3.02009 v -22.2455 q 0,-1.98884 0.55158,-3.16741 0.60174,-1.17857 1.60462,-2.20981 1.70491,-1.76785 4.21213,-2.87277 2.55736,-1.10491 5.3153,-1.10491 z"
       id="path2753"
       style="font-size:60.7755px;line-height:1.25;font-family:'Baloo Bhaijaan';-inkscape-font-specification:'Baloo Bhaijaan';stroke-width:1.51938;fill:#ff6600" />
    <path
       d="m 179.60913,165.92034 q 0,4.56695 -0.95275,8.17632 -0.95273,3.53571 -2.70778,5.96652 -1.70491,2.4308 -4.11185,3.68302 -2.40692,1.25223 -5.36543,1.25223 -2.95852,0 -5.36545,-1.32588 -2.40693,-1.32589 -4.16198,-3.7567 -1.70491,-2.50445 -2.65764,-6.04017 -0.95275,-3.53571 -0.95275,-7.95534 0,-4.34598 0.95275,-7.88169 0.95273,-3.5357 2.65764,-5.9665 1.75505,-2.50446 4.16198,-3.83036 2.40693,-1.32589 5.36545,-1.32589 2.95851,0 5.36543,1.39955 2.40694,1.32589 4.11185,3.83035 1.75505,2.4308 2.70778,5.96652 0.95275,3.5357 0.95275,7.80802 z m -17.55052,0 q 0,4.4933 1.15333,6.9241 1.20346,2.35713 3.30952,2.35713 2.10606,0 3.20923,-2.4308 1.15333,-2.4308 1.15333,-6.85043 0,-4.41964 -1.15333,-6.77678 -1.15331,-2.4308 -3.25937,-2.4308 -2.10607,0 -3.25938,2.4308 -1.15333,2.35714 -1.15333,6.77678 z"
       id="path2755"
       style="font-size:60.7755px;line-height:1.25;font-family:'Baloo Bhaijaan';-inkscape-font-specification:'Baloo Bhaijaan';stroke-width:1.51938;fill:#b3b3b3" />
    <path
       d="m 199.21243,161.1324 q 0,-2.28348 -0.90259,-3.31473 -0.85245,-1.10491 -2.35679,-1.10491 -1.00289,0 -2.00577,0.36831 -0.95274,0.3683 -1.65476,1.1049 v 25.56023 q -0.50144,0.22099 -1.60462,0.44196 -1.05303,0.22099 -2.20635,0.22099 -1.10318,0 -2.00578,-0.22099 -0.85245,-0.22097 -1.45418,-0.88392 -0.60173,-0.66294 -0.95274,-1.76785 -0.30086,-1.17857 -0.30086,-3.02009 v -22.09818 q 0,-1.98884 0.55158,-3.24106 0.60173,-1.25224 1.60462,-2.28348 1.70491,-1.76785 4.26227,-2.87277 2.6075,-1.10491 5.76659,-1.10491 5.66632,0 8.72512,3.68304 3.0588,3.60936 3.0588,10.0915 v 23.05576 q -0.50144,0.22099 -1.60462,0.44196 -1.05303,0.22099 -2.20635,0.22099 -1.10317,0 -2.00577,-0.22099 -0.85246,-0.22097 -1.45419,-0.88392 -0.60173,-0.66294 -0.95274,-1.76785 -0.30087,-1.17857 -0.30087,-3.02009 z"
       id="path2757"
       style="font-size:60.7755px;line-height:1.25;font-family:'Baloo Bhaijaan';-inkscape-font-specification:'Baloo Bhaijaan';stroke-width:1.51938;fill:#ffccaa" />
  </g>
</svg>
